<svg width="580" height="500" viewBox="0 0 1074 646" fill="none" xmlns="http://www.w3.org/2000/svg">
<path d="M560.632 449.81C608.849 450.407 655.388 450.464 694.87 449.605C957.35 443.895 1168.75 487.515 1026.28 517.005C986.47 525.245 1095.62 593.005 818.18 592.395C574.63 591.805 328.78 552.455 209.7 534.855C90.62 517.255 36.55 494.325 11.44 483.945C-10.64 474.825 -16.21 429.885 245.87 440.845C299.959 443.11 435.91 448.266 560.632 449.81Z" stroke="#E4EFFF" stroke-width="2"/>
<path d="M560.632 449.81C608.849 450.407 655.388 450.464 694.87 449.605C957.35 443.895 1168.75 487.515 1026.28 517.005C986.47 525.245 1095.62 593.005 818.18 592.395C574.63 591.805 328.78 552.455 209.7 534.855C90.62 517.255 36.55 494.325 11.44 483.945C-10.64 474.825 -16.21 429.885 245.87 440.845C299.959 443.11 435.91 448.266 560.632 449.81Z" fill="#E4EFFF"/>
<path d="M866.319 441.761C888.848 438.423 890.464 453.428 892.984 456.165C910.993 475.696 915.192 481.217 939.085 467.645C950.956 460.918 954.583 482.503 983.484 469.15C1004.84 459.281 1020 471.2 1030.36 466.978C1047.32 460.061 1055.58 428.631 1046.08 423.178C1040.66 420.075 1005.76 427.178 1022.97 413.122C1044.43 395.594 1032.51 391.199 1019.45 398.044C1014.28 400.76 964.865 422.054 972.258 412.44C999.281 377.276 976.129 385.943 956.864 402.346C946.229 411.394 934.226 409.74 931.736 406.45C925.219 397.828 900.227 403.626 887.725 404.295C833.326 407.238 817.959 448.915 866.319 441.761Z" fill="#E4EFFF"/>
<path d="M982.668 288.318C978.509 289.72 974.325 293.178 971.389 298.122C967.006 305.498 966.859 313.774 970.615 318.239C974.772 316.823 978.955 313.364 981.887 308.429C986.274 301.044 986.425 292.783 982.668 288.318Z" fill="#E4EFFF"/>
<path d="M963.025 316.312C962.025 309.518 958.579 303.981 954.303 301.487C952.26 305.707 951.58 310.458 952.358 315.08C953.358 321.874 956.817 327.407 961.083 329.918C963.12 325.692 963.799 320.939 963.025 316.312Z" fill="#E4EFFF"/>
<path d="M959.648 335.172C958.858 330.969 956.793 327.11 953.733 324.121C948.481 318.884 941.427 316.915 935.789 318.555C936.575 322.754 938.633 326.609 941.687 329.596C946.956 334.844 954.025 336.787 959.648 335.172Z" fill="#E4EFFF"/>
<path d="M977.899 335.151C971.143 333.464 964.506 335.081 960.412 338.86C963.221 343.53 967.814 346.85 973.129 348.055C979.885 349.742 986.514 348.12 990.608 344.341C987.811 339.666 983.216 336.344 977.899 335.151Z" fill="#E4EFFF"/>
<path d="M985.597 317.299C980.141 317.078 974.89 319.404 971.388 323.595C974.644 326.532 978.859 328.181 983.244 328.23C988.704 328.441 993.948 326.079 997.409 321.85C994.146 318.964 989.954 317.349 985.597 317.299Z" fill="#E4EFFF"/>
<path d="M970.962 316.363L971.667 316.782L937.365 374.521L936.66 374.102L970.962 316.363Z" fill="#E4EFFF"/>
<path d="M966.223 324.399L972.365 323.415L972.495 324.225L966.352 325.209L966.223 324.399Z" fill="#E4EFFF"/>
<path d="M932.736 341.354C934.898 346.37 939.262 350.1 944.554 351.457C945.797 347.249 945.467 342.732 943.623 338.75C941.449 333.723 937.043 330.007 931.72 328.712C930.533 332.912 930.893 337.398 932.736 341.354Z" fill="#E4EFFF"/>
<path d="M947.469 355.771L948.144 355.3L944.587 350.186L943.917 350.649L947.469 355.771Z" fill="#E4EFFF"/>
<path d="M956.425 340.752L961.919 337.836L962.304 338.56L956.81 341.476L956.425 340.752Z" fill="#E4EFFF"/>
<path d="M961.547 332.799L962.315 332.523L961.077 329.008L960.3 329.279L961.547 332.799Z" fill="#E4EFFF"/>
<path d="M958.686 335.284L959.327 334.773L960.032 335.655L959.391 336.167L958.686 335.284Z" fill="#E4EFFF"/>
<path d="M961.691 347.006C968.136 344.635 974.655 345.018 978.895 347.572C976.161 351.382 972.314 354.253 967.883 355.79C961.438 358.161 954.924 357.769 950.679 355.224C953.41 351.411 957.258 348.54 961.691 347.006Z" fill="#E4EFFF"/>
<path d="M946.716 358.977C950.779 357.654 955.151 357.619 959.234 358.876C966.353 360.988 971.456 366.241 972.712 371.978C968.649 373.293 964.279 373.329 960.195 372.079C953.081 369.957 947.973 364.713 946.716 358.977Z" fill="#E4EFFF"/>
<path d="M947.762 355.428L951.444 354.827L951.576 355.637L947.895 356.237L947.762 355.428Z" fill="#E4EFFF"/>
<path d="M945.879 359.7L946.037 358.887L947.147 359.093L947.003 359.903L945.879 359.7Z" fill="#E4EFFF"/>
<path d="M942.536 364.401C942.571 361.362 941.666 358.386 939.944 355.882C937.011 351.5 932.327 349.124 928.206 349.502C928.171 352.539 929.073 355.511 930.79 358.016C933.706 362.447 938.372 364.754 942.536 364.401Z" fill="#E4EFFF"/>
<path d="M922.662 408.454L921.36 408.596C914.879 346.644 935.824 288.407 936.042 287.82L937.258 288.271C937.047 288.827 916.205 346.811 922.662 408.454Z" fill="#B0BFDE"/>
<path d="M938.395 284.223C942.354 286.025 944.929 288.791 944.24 290.396C943.549 292 939.709 291.836 935.749 290.025C931.789 288.214 929.215 285.457 929.905 283.852C930.595 282.248 934.435 282.412 938.395 284.223Z" fill="#B0BFDE"/>
<path d="M937.495 286.203C938.745 286.781 939.585 287.655 939.348 288.163C939.112 288.672 937.91 288.622 936.65 288.045C935.39 287.469 934.56 286.594 934.796 286.085C935.032 285.576 936.235 285.626 937.495 286.203Z" fill="#0C1153"/>
<path d="M946.488 412.762L945.235 412.417C960.895 357.255 1005.34 347.462 1005.79 347.368L1006.05 348.653C1005.61 348.749 961.931 358.39 946.488 412.762Z" fill="#B0BFDE"/>
<path d="M1009.54 346.022C1012.24 350.916 1012.81 355.81 1010.81 356.911C1008.82 358.012 1005.02 354.902 1002.35 349.988C999.674 345.073 999.078 340.19 1001.07 339.099C1003.06 338.008 1006.83 341.099 1009.54 346.022Z" fill="#B0BFDE"/>
<path d="M1007.07 347.367C1007.94 348.932 1008.11 350.484 1007.48 350.828C1006.84 351.173 1005.64 350.189 1004.78 348.625C1003.93 347.062 1003.74 345.518 1004.38 345.173C1005.01 344.829 1006.21 345.804 1007.07 347.367Z" fill="#0C1153"/>
<path d="M959.651 364.317C955.356 381.909 942.656 396.249 925.71 402.637C905.444 380.198 907.205 345.576 929.645 325.31C934.742 320.706 940.661 317.102 947.09 314.687C959.211 328.144 963.911 346.714 959.651 364.317Z" fill="#D1DBEA"/>
<path d="M926.357 399.31L945.218 321.628L946.083 321.838L927.222 399.521L926.357 399.31Z" fill="white"/>
<path d="M941.366 337.964L933.505 326.904L934.23 326.388L942.091 337.449L941.366 337.964Z" fill="white"/>
<path d="M938.089 351.217L928.401 337.59L929.126 337.074L938.815 350.701L938.089 351.217Z" fill="white"/>
<path d="M934.769 364.484L918.574 341.705L919.299 341.189L935.495 363.968L934.769 364.484Z" fill="white"/>
<path d="M931.549 377.73L915.788 355.562L916.513 355.046L932.274 377.214L931.549 377.73Z" fill="white"/>
<path d="M928.418 390.952L919.645 378.613L920.37 378.097L929.143 390.436L928.418 390.952Z" fill="white"/>
<path d="M942.484 336.575L942.076 335.783L954.144 329.576L954.55 330.368L942.484 336.575Z" fill="white"/>
<path d="M939.171 349.824L938.764 349.033L957.572 339.358L957.979 340.149L939.171 349.824Z" fill="white"/>
<path d="M936.127 363.052L935.72 362.261L959.266 350.148L959.673 350.939L936.127 363.052Z" fill="white"/>
<path d="M932.86 376.3L932.453 375.509L956.642 363.07L957.05 363.862L932.86 376.3Z" fill="white"/>
<path d="M926.268 395.292L925.861 394.507L946.482 383.802L946.889 384.588L926.268 395.292Z" fill="white"/>
<path d="M1021.68 451.701C1008.57 446.296 995.195 446.056 983.862 447.912C1012.37 433.837 1046.39 413.025 1020.02 405.293C1011.81 402.882 997.809 406.755 981.805 413.835C1001.26 396.957 1012.9 382.32 1003.74 377.599C995.223 373.225 974.062 386.06 950.804 403.843C965.058 388.018 974.234 373.568 970.521 365.356C967.49 358.658 957.59 364.001 945.334 374.971C947.746 363.858 945.821 356.554 938.483 356.669C931.589 356.772 923.91 368.772 917.319 383.627C915.34 360.208 902.764 343.215 886.317 344.435L870.401 435.147C870.623 436.753 870.831 438.286 871.006 439.737C871.006 439.737 980.86 492.379 1032.35 468.066C1038.43 465.192 1033.65 456.656 1021.68 451.701Z" fill="#B0BFDE"/>
<path d="M43.53 130.065H662.11V478.395H43.53V130.065Z" fill="#316091"/>
<path d="M43.77 129.975H662.34V138.995H43.77V129.975Z" fill="#ACD5F4"/>
<path d="M54.72 134.135H69.61V134.995H54.72V134.135Z" fill="#86BBD8"/>
<path d="M73.84 134.135H88.72V134.995H73.84V134.135Z" fill="#86BBD8"/>
<path d="M92.96 134.135H107.85V134.995H92.96V134.135Z" fill="#86BBD8"/>
<path d="M112.08 134.135H126.97V134.995H112.08V134.135Z" fill="#86BBD8"/>
<path d="M131.2 134.135H146.09V134.995H131.2V134.135Z" fill="#86BBD8"/>
<path d="M150.31 134.135H165.2V134.995H150.31V134.135Z" fill="#86BBD8"/>
<path d="M169.43 134.135H184.32V134.995H169.43V134.135Z" fill="#86BBD8"/>
<path d="M188.56 134.135H203.45V134.995H188.56V134.135Z" fill="#86BBD8"/>
<path d="M48.11 133.035H50.91V136.095H48.11V133.035Z" fill="#86BBD8"/>
<path d="M620.85 140.375H660.1V147.175H620.85V140.375Z" fill="#194866"/>
<path d="M590.38 143.065H611.05V144.465H590.38V143.065Z" fill="#194866"/>
<path d="M57.51 141.975H60.31V145.035H57.51V141.975Z" fill="#86C0F0"/>
<path d="M48.11 141.975H50.91V145.035H48.11V141.975Z" fill="#86C0F0"/>
<path d="M63.67 141.975H66.48V145.035H63.67V141.975Z" fill="#86C0F0"/>
<path d="M55.8515 157.733H56.8485V158.157H55.8515V157.733Z" fill="#2C7EEA"/>
<path d="M54.8892 172.553H57.8108V173.797H54.8892V172.553Z" fill="#2C7EEA"/>
<path d="M54.346 187.551H58.3539V189.259H54.346V187.551Z" fill="#2C7EEA"/>
<path d="M53.9705 202.631H58.7296V204.659H53.9705V202.631Z" fill="#2C7EEA"/>
<path d="M53.6868 217.741H59.0132V220.009H53.6868V217.741Z" fill="#2C7EEA"/>
<path d="M53.4587 232.874H59.2412V235.336H53.4587V232.874Z" fill="#2C7EEA"/>
<path d="M53.2662 248.032H59.4338V250.658H53.2662V248.032Z" fill="#2C7EEA"/>
<path d="M53.0978 263.19H59.6022V265.96H53.0978V263.19Z" fill="#2C7EEA"/>
<path d="M52.9384 278.352H59.7615V281.258H52.9384V278.352Z" fill="#2C7EEA"/>
<path d="M52.7857 293.517H59.9143V296.553H52.7857V293.517Z" fill="#2C7EEA"/>
<path d="M52.6259 308.689H60.0741V311.861H52.6259V308.689Z" fill="#2C7EEA"/>
<path d="M52.4563 323.847H60.2437V327.163H52.4563V323.847Z" fill="#2C7EEA"/>
<path d="M52.2693 338.997H60.4307V342.473H52.2693V338.997Z" fill="#2C7EEA"/>
<path d="M52.0532 354.135H60.6467V357.795H52.0532V354.135Z" fill="#2C7EEA"/>
<path d="M51.807 369.27H60.8929V373.14H51.807V369.27Z" fill="#2C7EEA"/>
<path d="M51.5496 384.39H61.1504V388.48H51.5496V384.39Z" fill="#2C7EEA"/>
<path d="M51.49 399.595H61.21V403.735H51.49V399.595Z" fill="#2C7EEA"/>
<path d="M122.46 155.875H124.926V160.015H122.46V155.875Z" fill="#3DC7C9"/>
<path d="M133.16 171.105H133.462V175.245H133.16V171.105Z" fill="#2C7EEA"/>
<path d="M133.16 186.335H133.392V190.475H133.16V186.335Z" fill="#2C7EEA"/>
<path d="M133.16 201.575H133.342V205.715H133.16V201.575Z" fill="#2C7EEA"/>
<path d="M196.35 171.105H196.79V175.245H196.35V171.105Z" fill="#3DC7C9"/>
<path d="M196.35 186.335H196.699V190.475H196.35V186.335Z" fill="#3DC7C9"/>
<path d="M196.35 201.575H196.626V205.715H196.35V201.575Z" fill="#3DC7C9"/>
<path d="M163.78 171.105H163.83V175.245H163.78V171.105Z" fill="#F1FAFC"/>
<path d="M163.78 186.335H163.819V190.475H163.78V186.335Z" fill="#F1FAFC"/>
<path d="M163.78 201.575H163.81V205.715H163.78V201.575Z" fill="#F1FAFC"/>
<path d="M185.35 171.105H185.356V175.245H185.35V171.105Z" fill="#E9D6B8"/>
<path d="M185.35 186.335H185.355V190.475H185.35V186.335Z" fill="#E9D6B8"/>
<path d="M185.35 201.575H185.353V205.715H185.35V201.575Z" fill="#E9D6B8"/>
<path d="M122.95 171.105H122.952V175.245H122.95V171.105Z" fill="#E9D6B8"/>
<path d="M122.95 186.335H122.952V190.475H122.95V186.335Z" fill="#E9D6B8"/>
<path d="M122.95 201.575H122.951V205.715H122.95V201.575Z" fill="#E9D6B8"/>
<path d="M133.16 232.035H133.165V236.175H133.16V232.035Z" fill="#2C7EEA"/>
<path d="M211.91 232.035H211.913V236.175H211.91V232.035Z" fill="#3DC7C9"/>
<path d="M175.45 232.035H175.45V236.175H175.45V232.035Z" fill="#F1FAFC"/>
<path d="M263.92 262.505H263.922V266.645H263.92V262.505Z" fill="#3DC7C9"/>
<path d="M177.39 262.505H177.395V266.645H177.39V262.505Z" fill="#F1FAFC"/>
<path d="M320.31 232.035H320.318V236.175H320.31V232.035Z" fill="#3DC7C9"/>
<path d="M276.07 232.035H276.078V236.175H276.07V232.035Z" fill="#F1FAFC"/>
<path d="M309.31 232.035H309.312V236.175H309.31V232.035Z" fill="#E9D6B8"/>
<path d="M375.42 232.035H375.423V236.175H375.42V232.035Z" fill="#E9D6B8"/>
<path d="M122.95 232.035H122.953V236.175H122.95V232.035Z" fill="#E9D6B8"/>
<path d="M133.16 292.965H133.196V297.105H133.16V292.965Z" fill="#2C7EEA"/>
<path d="M122.95 292.965H122.955V297.105H122.95V292.965Z" fill="#F1FAFC"/>
<path d="M172.53 292.965H172.537V297.105H172.53V292.965Z" fill="#F1FAFC"/>
<path d="M107.88 353.895H107.944V358.035H107.88V353.895Z" fill="#2C7EEA"/>
<path d="M97.67 353.895H97.6791V358.035H97.67V353.895Z" fill="#F1FAFC"/>
<path d="M147.26 353.895H147.271V358.035H147.26V353.895Z" fill="#F1FAFC"/>
<path d="M150.66 277.735H150.672V281.875H150.66V277.735Z" fill="#E9D6B8"/>
<path d="M150.66 247.275H150.726V251.415H150.66V247.275Z" fill="#2C7EEA"/>
<path d="M177.39 247.275H177.682V251.415H177.39V247.275Z" fill="#E9D6B8"/>
<path d="M308.16 171.105H308.443V175.245H308.16V171.105Z" fill="#3DC7C9"/>
<path d="M308.16 186.335H308.475V190.475H308.16V186.335Z" fill="#3DC7C9"/>
<path d="M308.16 201.575H308.51V205.715H308.16V201.575Z" fill="#3DC7C9"/>
<path d="M377.19 171.105H377.866V175.245H377.19V171.105Z" fill="#3DC7C9"/>
<path d="M377.19 186.335H378.209V190.475H377.19V186.335Z" fill="#3DC7C9"/>
<path d="M377.19 201.575H378.511V205.715H377.19V201.575Z" fill="#3DC7C9"/>
<path d="M275.59 171.105H275.708V175.245H275.59V171.105Z" fill="#F1FAFC"/>
<path d="M275.59 186.335H275.719V190.475H275.59V186.335Z" fill="#F1FAFC"/>
<path d="M275.59 201.575H275.731V205.715H275.59V201.575Z" fill="#F1FAFC"/>
<path d="M297.16 171.105H297.201V175.245H297.16V171.105Z" fill="#E9D6B8"/>
<path d="M297.16 186.335H297.205V190.475H297.16V186.335Z" fill="#E9D6B8"/>
<path d="M297.16 201.575H297.209V205.715H297.16V201.575Z" fill="#E9D6B8"/>
<path d="M506.97 171.105H507.023V175.245H506.97V171.105Z" fill="#E9D6B8"/>
<path d="M545.56 186.335H545.618V190.475H545.56V186.335Z" fill="#E9D6B8"/>
<path d="M571.81 201.575H571.873V205.715H571.81V201.575Z" fill="#E9D6B8"/>
<path d="M122.46 216.805H124.686V220.945H122.46V216.805Z" fill="#7EC8EF"/>
<path d="M106.91 386.295H107.313V390.435H106.91V386.295Z" fill="#2C7EEA"/>
<path d="M156.98 416.755H157.421V420.895H156.98V416.755Z" fill="#2C7EEA"/>
<path d="M220.17 416.755H223.38V420.895H220.17V416.755Z" fill="#3DC7C9"/>
<path d="M123.92 401.525H129.084V405.665H123.92V401.525Z" fill="#F1FAFC"/>
<path d="M187.6 416.755H188.012V420.895H187.6V416.755Z" fill="#F1FAFC"/>
<path d="M96.69 386.295H96.8112V390.435H96.69V386.295Z" fill="#E9D6B8"/>
<path d="M133.16 386.295H133.295V390.435H133.16V386.295Z" fill="#E9D6B8"/>
<path d="M185.65 431.985H186.014V436.125H185.65V431.985Z" fill="#2C7EEA"/>
<path d="M175.45 431.985H175.618V436.125H175.45V431.985Z" fill="#E9D6B8"/>
<path d="M146.77 416.755H146.961V420.895H146.77V416.755Z" fill="#E9D6B8"/>
<path d="M203.16 447.225H220.651V451.365H203.16V447.225Z" fill="#F1FAFC"/>
<path d="M122.46 308.205H133.713V312.345H122.46V308.205Z" fill="#7EC8EF"/>
<path d="M122.46 323.435H142.403V327.575H122.46V323.435Z" fill="#7EC8EF"/>
<path d="M122.46 338.665H131.111V342.805H122.46V338.665Z" fill="#7EC8EF"/>
<path d="M332.06 188.285H921.02V479.495H332.06V188.285Z" fill="white"/>
<path d="M915.07 148.485H337.94C334.795 148.384 332.163 150.85 332.06 153.995V188.495H920.95V153.995C920.847 150.85 918.215 148.384 915.07 148.485Z" fill="#ACD5F4"/>
<path d="M344.55 159.245C344.556 161.217 342.962 162.819 340.99 162.825C339.018 162.831 337.416 161.237 337.41 159.265C337.405 157.293 338.998 155.691 340.97 155.685C340.977 155.685 340.983 155.685 340.99 155.685C342.956 155.685 344.55 157.279 344.55 159.245Z" fill="#86BBD8"/>
<path d="M355.03 159.245C355.03 161.211 353.436 162.805 351.47 162.805C349.504 162.805 347.91 161.211 347.91 159.245C347.91 157.279 349.504 155.685 351.47 155.685C353.436 155.685 355.03 157.279 355.03 159.245Z" fill="#86BBD8"/>
<path d="M365.5 159.245C365.5 161.211 363.906 162.805 361.94 162.805C359.974 162.805 358.38 161.211 358.38 159.245C358.38 157.279 359.974 155.685 361.94 155.685C363.904 155.69 365.495 157.281 365.5 159.245Z" fill="#86BBD8"/>
<path d="M342.29 180.505L336.68 174.885L342.29 169.275L344.37 171.365L340.85 174.885L344.37 178.415L342.29 180.505Z" fill="#86BBD8"/>
<path d="M340.01 173.415H350.37V176.365H340.01V173.415Z" fill="#86BBD8"/>
<path d="M366.05 180.505L363.97 178.415L367.49 174.885L363.97 171.365L366.05 169.275L371.66 174.885L366.05 180.505Z" fill="#86BBD8"/>
<path d="M357.97 173.415H368.34V176.365H357.97V173.415Z" fill="#86BBD8"/>
<path d="M380.58 167.815H840.85V183.295H380.58V167.815Z" fill="white"/>
<path d="M846.87 167.815H892.09V181.635H846.87V167.815Z" fill="#74B2E8"/>
<path d="M345.03 391.085H630.09V469.185H345.03V391.085Z" fill="#EFFAFF"/>
<path d="M345.04 230.145H630.1V390.005H345.04V230.145Z" fill="#ACD5F4"/>
<path d="M507.294 315.297V311.059C507.3 309.749 506.242 308.682 504.932 308.676C504.929 308.676 504.924 308.676 504.921 308.676H471.021C469.704 308.676 468.637 309.742 468.637 311.059V332.723C468.637 334.04 469.704 335.107 471.021 335.107H504.921C506.232 335.107 507.294 334.044 507.294 332.734C507.294 332.731 507.294 332.727 507.294 332.723V328.486L520.113 334.842V308.94L507.294 315.297Z" fill="white"/>
<path d="M477.949 307.775C482.443 307.775 486.085 304.133 486.085 299.639C486.085 295.145 482.443 291.503 477.949 291.503C473.455 291.503 469.813 295.145 469.813 299.639C469.813 304.133 473.455 307.775 477.949 307.775Z" fill="white"/>
<path d="M495.355 307.775C499.849 307.781 503.496 304.143 503.502 299.65C503.508 295.156 499.87 291.509 495.376 291.503C490.882 291.497 487.236 295.135 487.23 299.628C487.23 299.632 487.23 299.636 487.23 299.639C487.23 304.129 490.865 307.769 495.355 307.775Z" fill="white"/>
<path d="M357.37 422.025H417.138V425.885H357.37V422.025Z" fill="#ACD5F4"/>
<path d="M358.44 413.025H446.28V416.875H358.44V413.025Z" fill="#ACD5F4"/>
<path d="M358.44 402.015H402.634V407.155H358.44V402.015Z" fill="#74B2E8"/>
<path d="M635.9 230.145H909.92V305.275H635.9V230.145Z" fill="#74B2E8"/>
<path d="M647.1 245.365H695.99V250.505H647.1V245.365Z" fill="white"/>
<path d="M647.1 256.365H775.753V260.225H647.1V256.365Z" fill="#ACD5F4"/>
<path d="M647.1 265.375H748.864V269.235H647.1V265.375Z" fill="#ACD5F4"/>
<path d="M647.1 283.795H673.63V291.045H647.1V283.795Z" fill="white"/>
<path d="M653.102 286.816H661.655V288.018H653.102V286.816Z" fill="#D0DEE6"/>
<path d="M776.06 391.085H910.19V469.185H776.06V391.085Z" fill="#EFFAFF"/>
<path d="M776.06 311.785H910.19V389.995H776.06V311.785Z" fill="#74B2E8"/>
<path d="M816.046 328.1V376.73H877.264V328.1H816.046ZM872.965 372.431H820.304V332.385H872.925L872.965 372.431Z" fill="#ACD5F4"/>
<path d="M841.463 342.259C841.463 345.026 839.219 347.27 836.452 347.27C833.685 347.27 831.441 345.026 831.441 342.259C831.441 339.492 833.685 337.248 836.452 337.248C836.456 337.248 836.461 337.248 836.465 337.248C839.227 337.256 841.463 339.497 841.463 342.259Z" fill="#ACD5F4"/>
<path d="M870.359 353.772L858.349 344.408L842.323 357.56L830.877 352.993L822.884 356.606V369.866H870.359V353.772Z" fill="#ACD5F4"/>
<path d="M788.4 422.025H822.13V425.885H788.4V422.025Z" fill="#ACD5F4"/>
<path d="M788.78 413.025H826.777V416.875H788.78V413.025Z" fill="#ACD5F4"/>
<path d="M788.78 402.015H820.518V407.155H788.78V402.015Z" fill="#74B2E8"/>
<path d="M787.52 440.212H815.758V447.928H787.52V440.212Z" fill="#74B2E8"/>
<path d="M793.914 442.981H809.376V445.153H793.914V442.981Z" fill="white"/>
<path d="M635.81 391.085H769.94V469.185H635.81V391.085Z" fill="#EFFAFF"/>
<path d="M635.81 311.785H769.94V389.995H635.81V311.785Z" fill="#74B2E8"/>
<path d="M676.722 328.835V375.995H736.088V328.835H676.722ZM731.919 371.826H680.852V332.991H731.88L731.919 371.826Z" fill="#ACD5F4"/>
<path d="M701.37 342.566C701.37 345.25 699.194 347.425 696.511 347.425C693.827 347.425 691.651 345.25 691.651 342.566C691.651 339.883 693.827 337.707 696.511 337.707C696.515 337.707 696.52 337.707 696.524 337.707C699.202 337.715 701.37 339.888 701.37 342.566Z" fill="#ACD5F4"/>
<path d="M729.392 353.731L717.745 344.651L702.204 357.404L691.104 352.975L683.353 356.48V369.338H729.392V353.731Z" fill="#ACD5F4"/>
<path d="M648.15 422.025H688.947V425.885H648.15V422.025Z" fill="#ACD5F4"/>
<path d="M648.53 413.025H688.384V416.875H648.53V413.025Z" fill="#ACD5F4"/>
<path d="M648.53 402.015H685.539V407.155H648.53V402.015Z" fill="#74B2E8"/>
<path d="M647.27 440.298H674.874V447.842H647.27V440.298Z" fill="#74B2E8"/>
<path d="M655.481 443.281H666.674V444.854H655.481V443.281Z" fill="white"/>
<path d="M404.23 207.366H434.274V210.624H404.23V207.366Z" fill="#ACD5F4"/>
<path d="M456.7 207.672H481.103V210.318H456.7V207.672Z" fill="#ACD5F4"/>
<path d="M509.16 207.884H529.645V210.106H509.16V207.884Z" fill="#ACD5F4"/>
<path d="M561.63 207.989H580.177V210.001H561.63V207.989Z" fill="#ACD5F4"/>
<path d="M614.1 207.991H632.611V209.999H614.1V207.991Z" fill="#ACD5F4"/>
<path d="M345.04 204.937H374.719V213.053H345.04V204.937Z" fill="#74B2E8"/>
<path d="M864.363 198.245H907.56V201.955H864.363V198.245Z" fill="#ACD5F4"/>
<path d="M888.681 207.135H907.56V210.855H888.681V207.135Z" fill="#ACD5F4"/>
<path d="M347.41 48.475H287.28C283.591 48.475 280.6 51.466 280.6 55.155C280.6 55.165 280.6 55.175 280.6 55.185V101.955C280.6 105.644 283.591 108.635 287.28 108.635H307.34L310.68 111.975L317.35 118.655L324.03 111.975L327.37 108.635H347.37C351.059 108.635 354.05 105.644 354.05 101.955V55.185C354.067 51.5 351.095 48.497 347.41 48.475Z" fill="#3DC7C9"/>
<path d="M305.87 96.605C303.89 96.059 302.181 94.802 301.07 93.075C300.074 91.29 299.58 89.268 299.64 87.225V83.075C299.696 81.999 299.461 80.929 298.96 79.975C298.527 79.247 297.726 78.82 296.88 78.865V74.785C297.726 74.83 298.527 74.403 298.96 73.675C299.461 72.721 299.696 71.651 299.64 70.575V66.405C299.578 64.358 300.073 62.333 301.07 60.545C302.183 58.821 303.892 57.568 305.87 57.025L306.87 60.185C306.006 60.638 305.376 61.438 305.14 62.385C304.78 63.687 304.615 65.035 304.65 66.385V70.555C304.677 71.843 304.396 73.118 303.83 74.275C303.272 75.352 302.4 76.234 301.33 76.805C302.395 77.389 303.262 78.276 303.82 79.355C304.389 80.504 304.674 81.773 304.65 83.055V87.185C304.614 88.535 304.776 89.882 305.13 91.185C305.363 92.136 305.998 92.939 306.87 93.385L305.87 96.605Z" fill="white"/>
<path d="M326.72 93.415C327.585 92.958 328.22 92.161 328.47 91.215C328.846 89.916 329.018 88.567 328.98 87.215V83.065C328.953 81.777 329.234 80.502 329.8 79.345C330.358 78.255 331.247 77.369 332.34 76.815C331.247 76.271 330.357 75.392 329.8 74.305C329.233 73.141 328.952 71.859 328.98 70.565V66.395C329.014 65.043 328.842 63.695 328.47 62.395C328.222 61.448 327.587 60.65 326.72 60.195L327.79 57.025C329.762 57.571 331.464 58.824 332.57 60.545C333.583 62.328 334.085 64.356 334.02 66.405V70.575C333.959 71.653 334.191 72.727 334.69 73.685C335.138 74.422 335.96 74.847 336.82 74.785V78.865C335.96 78.803 335.138 79.228 334.69 79.965C334.191 80.923 333.959 81.997 334.02 83.075V87.185C334.084 89.231 333.582 91.255 332.57 93.035C331.464 94.759 329.763 96.015 327.79 96.565L326.72 93.415Z" fill="white"/>
<path d="M38.8 10.025V66.705C38.8 70.902 42.203 74.305 46.4 74.305H118.12C122.317 74.305 125.72 70.902 125.72 66.705V49.705L129.52 45.905L137.12 38.315L129.52 30.715L125.72 26.925V10.025C125.72 5.828 122.317 2.42499 118.12 2.42499H46.4C42.203 2.42499 38.8 5.828 38.8 10.025Z" fill="#2C7EEA"/>
<path d="M62.33 37.185V37.325L73.39 41.985V48.185L56.44 39.835V34.555L73.39 26.185V32.375L62.33 37.185Z" fill="white"/>
<path d="M80.33 52.555H75.66L85.56 16.305H90.28L80.33 52.555Z" fill="white"/>
<path d="M104.34 37.245V37.105L93.17 32.385V26.185L110.25 34.525V39.805L93.17 48.185V42.035L104.34 37.245Z" fill="white"/>
<path d="M224.045 46.103L196.865 37.313L176.295 35.933L153.755 42.753C153.755 42.753 146.375 47.843 153.225 64.183C160.075 80.523 157.445 106.113 157.445 106.113L215.585 107.973C216.441 92.123 218.093 76.327 220.535 60.643C221.395 55.363 221.505 49.183 224.045 46.103Z" fill="#FF6440"/>
<path d="M184.155 106.843H187.155C190.244 83.864 190.076 60.565 186.655 37.633L183.975 39.233C184.725 62.523 183.445 85.803 184.155 106.843Z" fill="#E8502E"/>
<path d="M195.705 43.723C195.295 46.863 192.705 49.593 190.045 49.723H182.355C179.655 49.603 177.085 46.873 176.685 43.723C176.065 38.543 175.438 33.36 174.805 28.173C174.385 25.063 176.225 18.833 180.315 16.983C184.063 15.343 188.327 15.343 192.075 16.983C196.165 18.833 198.015 25.063 197.595 28.173L195.705 43.723Z" fill="#E2C59C"/>
<path d="M185.895 50.103L181.015 58.103L172.075 46.923L173.475 41.043L176.375 38.663L176.425 43.093L185.895 50.103Z" fill="#E8502E"/>
<path d="M186.485 50.103L191.355 58.103L199.675 47.693L198.315 41.313L196.225 38.623L195.375 43.843L186.485 50.103Z" fill="#E8502E"/>
<path d="M176.795 129.013C176.795 129.013 218.015 129.103 233.915 129.343C244.915 129.503 245.915 113.813 241.585 111.453C228.405 104.273 187.275 100.593 187.275 100.593L159.275 126.283C159.275 126.283 160.875 126.243 176.795 129.013Z" fill="#2C7EEA"/>
<path d="M129.435 207.813C128.805 208.583 129.265 210.603 129.265 210.603C129.265 210.603 140.355 211.843 143.935 211.003C145.334 210.536 146.676 209.912 147.935 209.143C148.175 209.003 148.615 208.143 148.865 208.003C149.305 207.743 149.545 208.183 149.925 207.943C150.521 207.597 151.089 207.206 151.625 206.773C152.625 201.683 151.295 199.633 151.295 199.633C151.295 199.633 141.845 196.493 140.075 198.683C135.885 203.833 130.825 206.183 129.435 207.813Z" fill="#161711"/>
<path d="M156.045 113.833C156.045 113.833 153.315 139.733 153.705 153.433C153.995 163.763 154.025 183.563 151.575 200.433C151.415 201.433 138.225 200.683 138.225 200.683C138.225 200.683 133.485 136.463 132.085 125.893C130.685 115.323 134.765 107.683 156.045 113.833Z" fill="#2C7EEA"/>
<path d="M191.495 128.383C191.495 128.383 168.965 131.593 153.935 133.173C148.415 133.753 143.645 118.313 143.005 117.653C141.005 115.372 138.173 113.989 135.145 113.813C138.405 110.293 155.275 107.023 172.905 102.893C190.535 98.763 193.225 101.353 193.225 101.353L191.495 128.383Z" fill="#1F6CD1"/>
<path d="M172.905 102.893C155.275 107.023 138.405 110.293 135.145 113.813C138.173 113.989 141.005 115.372 143.005 117.653C143.185 117.833 144.195 122.773 144.925 124.543C142.055 119.373 183.475 104.763 192.435 100.983C190.765 100.453 185.895 99.843 172.905 102.893Z" fill="#2C7EEA"/>
<path d="M153.545 128.193L151.825 178.603L150.095 190.293L149.905 178.603L150.285 171.313L146.265 160.003L144.155 133.743L147.225 134.893L146.835 123.403L153.545 128.193Z" fill="#1F6CD1"/>
<path d="M166.205 43.003C166.205 43.003 157.155 35.903 148.295 49.073C135.295 68.373 129.675 88.903 127.605 94.843C126.025 99.393 126.905 112.273 132.215 117.583C133.485 118.863 141.155 117.843 141.155 117.843L146.155 114.353L144.045 110.353L143.935 107.153C143.935 107.153 150.375 91.633 158.275 76.953C166.175 62.273 166.205 43.003 166.205 43.003Z" fill="#FF6440"/>
<path d="M144.075 102.003L173.475 103.533C173.475 103.533 145.155 116.533 144.215 114.293C138.915 101.603 144.075 102.003 144.075 102.003Z" fill="#E9D6B8"/>
<path d="M140.255 116.683L138.235 103.803L141.585 100.353L149.005 101.533L147.495 115.813L140.255 116.683Z" fill="#E8502E"/>
<path d="M215.655 44.913C215.655 44.913 226.255 41.913 230.865 55.783C237.945 77.023 237.315 96.493 236.335 100.643C235.875 102.563 234.515 109.153 222.675 109.413C217.875 109.513 219.795 99.223 219.795 99.223C217.25 91.504 215.127 83.652 213.435 75.703C210.155 60.923 215.655 44.913 215.655 44.913Z" fill="#E8502E"/>
<path d="M220.435 96.183L192.065 107.763C192.065 107.763 212.195 110.643 224.775 108.073C233.285 106.343 220.825 95.813 220.435 96.183Z" fill="#E9D6B8"/>
<path d="M230.405 107.433L231.175 102.693L221.775 94.263L216.695 96.563L223.345 109.273L230.405 107.433Z" fill="#FF6440"/>
<path d="M206.591 197.432L204.593 205.607L212.26 209.111C212.26 209.111 213.173 208.241 213.822 208.538C214.47 208.835 214.59 210.177 215.33 210.516L219.452 212.399L234.83 219.434C234.83 219.434 235.903 218.005 235.733 217.27C235.23 216.46 234.587 215.746 233.837 215.158C230.38 212.235 220.637 203.575 220.394 198.902C220.106 193.219 206.591 197.432 206.591 197.432Z" fill="#161711"/>
<path d="M232.361 112.739C227.675 113.136 222.222 122.117 220.677 124.343C216.923 129.974 203.142 197.589 203.142 197.589L221.237 197.986L244.924 118.889C244.924 118.889 246.763 111.517 232.361 112.739Z" fill="#1F6CD1"/>
<path d="M240.408 115.507L244.025 117.967L225.77 175.741L210.387 193.344L219.223 180.786L227.498 151.41C227.498 151.41 216.903 163.364 217.147 162.655C217.391 161.945 232.455 134.08 232.455 134.08C232.455 134.08 225.459 136.739 226.06 136.745C226.661 136.75 236.392 117.16 240.408 115.507Z" fill="#2C7EEA"/>
<path d="M211.875 112.183C211.875 112.183 211.875 112.183 211.875 112.123V110.273H153.955V112.183C153.955 112.183 153.955 112.183 153.955 112.243L154.145 112.593C155.145 114.203 156.905 114.483 158.935 114.483H206.935C208.935 114.483 210.735 114.203 211.715 112.593L211.875 112.183Z" fill="#B6C2C9"/>
<path d="M163.755 110.743H202.105V112.053H163.755V110.743Z" fill="#879BA6"/>
<path d="M211.835 110.513L211.995 72.513C212.006 71.524 211.214 70.714 210.225 70.703C210.215 70.703 210.205 70.703 210.195 70.703H155.975C154.975 70.697 154.161 71.503 154.155 72.503C154.155 72.506 154.155 72.51 154.155 72.513L153.995 110.513H211.835Z" fill="#E4EEF3"/>
<path d="M186.505 90.613C186.505 92.552 184.934 94.123 182.995 94.123C181.056 94.123 179.485 92.552 179.485 90.613C179.485 88.674 181.056 87.103 182.995 87.103C183.002 87.103 183.008 87.103 183.015 87.103C184.943 87.119 186.5 88.685 186.505 90.613Z" fill="#B6C2C9"/>
<path d="M185.208 9.8969C183.133 9.8889 181.197 10.9369 180.068 12.6769H177.958C175.328 12.6769 173.193 14.8069 173.188 17.4369V29.2069H176.548V24.4269C176.548 22.5749 178.046 21.0719 179.898 21.0669H180.798C184.181 21.0729 186.931 18.3399 186.948 14.9569V9.95689L185.208 9.8969Z" fill="#163F59"/>
<path d="M179.268 33.5869C179.268 35.1939 177.965 36.4969 176.358 36.4969C176.355 36.4969 176.351 36.4969 176.348 36.4969H176.108C174.501 36.5029 173.194 35.2039 173.188 33.5969C173.188 33.5939 173.188 33.5899 173.188 33.5869V30.0469C173.188 28.4339 174.495 27.1269 176.108 27.1269H176.348C177.503 27.1299 178.549 27.8109 179.018 28.8669L179.268 33.5869Z" fill="#E2C59C"/>
<path d="M197.968 38.0569C197.968 40.4969 196.088 44.6369 192.968 45.9469C188.674 47.6869 183.872 47.6869 179.578 45.9469C176.478 44.6369 174.578 40.5069 174.578 38.0569V17.2469C174.578 14.7869 177.008 12.7169 180.038 12.6569H192.448C195.448 12.7169 197.928 14.7869 197.908 17.2469L197.968 38.0569Z" fill="#E9D6B8"/>
<path d="M188.688 9.89688C190.762 9.89086 192.698 10.9379 193.828 12.6769H195.948C198.577 12.6769 200.708 14.8079 200.708 17.4369V29.2069H197.358V24.4269C197.353 22.5769 195.857 21.0779 194.008 21.0669H189.718C186.336 21.0729 183.589 18.3389 183.578 14.9569V9.95687L188.688 9.89688Z" fill="#163F59"/>
<path d="M194.678 30.0469C194.678 28.4339 195.985 27.1269 197.598 27.1269H197.828C199.435 27.1269 200.738 28.4299 200.738 30.0369C200.738 30.0399 200.738 30.0439 200.738 30.0469V33.5869C200.738 35.1939 199.435 36.4969 197.828 36.4969H197.588C196.432 36.4999 195.382 35.8219 194.908 34.7669L194.678 30.0469Z" fill="#E9D6B8"/>
<path d="M183.568 15.7769C183.648 15.3819 183.688 14.9799 183.688 14.5769V9.89689H179.348C175.951 9.89088 173.194 12.6399 173.188 16.0369C173.188 16.0399 173.188 16.0439 173.188 16.0469V20.7169H177.548C177.971 20.7139 178.393 20.6709 178.808 20.5869C179.288 18.1749 181.161 16.2819 183.568 15.7769Z" fill="#163F59"/>
<path d="M365.89 458.606L367.466 489.425C367.466 489.425 354.909 477.521 352.679 463.068C350.449 448.615 365.045 457.526 365.89 458.606Z" fill="#E9D6B8"/>
<path d="M359.405 375.799C359.405 375.799 352.303 380.931 349.756 418.341C347.21 455.751 350.464 454.1 350.464 454.1L352.101 462.45L366.174 462.886L371.271 430.408L359.405 375.799Z" fill="#007FCF"/>
<path d="M428.482 428.529L389.768 438.264C389.768 438.264 432.166 447.661 441.186 436.734C450.206 425.807 428.482 428.529 428.482 428.529Z" fill="#E9D6B8"/>
<path d="M449.931 435.018C448.833 439.37 445.734 442.217 436.627 442.548C429.67 442.802 427.36 442.927 427.36 442.927L424.835 428.158L429.012 427.123L431.375 426.937C431.375 426.937 452.37 425.348 449.931 435.018Z" fill="#0095EF"/>
<path d="M416.2 374.407C416.2 374.407 419.81 370.785 427.564 381.556C440.769 399.901 446.418 422.085 447.69 426.39C448.961 430.694 452.405 435.287 444.652 441.604C435.552 447.593 429.525 436.24 429.525 436.24C429.525 436.24 424.334 420.466 416.902 406.861C403.863 382.993 416.2 374.407 416.2 374.407Z" fill="#0095EF"/>
<path d="M399.87 637.825L401.8 645.825L410.02 645.435C410.02 645.435 410.43 644.265 411.12 644.235C411.81 644.205 412.52 645.315 413.31 645.235L417.74 645.025L434.24 644.225C434.24 644.225 434.52 642.505 434.04 641.945C433.24 641.484 432.368 641.163 431.46 640.995C427.16 639.995 414.82 636.865 412.51 632.905C409.74 628.115 399.87 637.825 399.87 637.825Z" fill="#161711"/>
<path d="M377.47 449.685C377.47 449.685 398.38 559.365 400.26 564.275C406.61 580.865 414.08 558.345 415.76 552.625C417.44 546.905 418.68 505.165 416.56 474.835L414.44 444.525L377.47 449.685Z" fill="#163F59"/>
<path d="M397.35 536.725C397.35 536.725 395.64 550.015 394.51 566.935C393.67 579.365 395.33 614.655 398.8 639.055C399.01 640.545 414.37 635.225 414.37 635.225C414.37 635.225 416.74 566.345 417.3 550.915C417.86 535.485 406.6 525.275 397.35 536.725Z" fill="#163F59"/>
<path d="M365.46 635.395C366.04 634.615 365.46 632.655 365.46 632.655C365.46 632.655 354.57 631.985 351.14 632.965C349.803 633.481 348.531 634.152 347.35 634.965C347.11 635.105 346.72 635.965 346.5 636.115C346.07 636.385 345.82 635.965 345.5 636.225C344.937 636.587 344.406 636.995 343.91 637.445C343.19 642.445 344.56 644.445 344.56 644.445C344.56 644.445 353.56 646.785 355.56 644.845C360.48 639.885 364.18 637.105 365.46 635.395Z" fill="#161711"/>
<path d="M374.96 522.915C374.96 522.915 378.23 524.165 370.96 569.415C365.72 601.995 361.05 625.885 358.85 636.695C357.99 640.895 356.77 640.205 356.77 640.205L347.87 641.645L343.37 638.185L352.68 564.455L374.96 522.915Z" fill="#163F59"/>
<path d="M393.57 471.725C393.57 471.725 377.11 558.025 362.78 597.035C354.39 619.895 352.23 576.915 352.23 576.915L360.95 452.335L403.87 448.185C403.87 448.185 399.04 449.915 393.57 471.725Z" fill="#163F59"/>
<path d="M398.135 367.294L401.226 357.792C401.226 357.792 408.071 359.113 409.845 355.54C413.394 348.395 412.481 336.224 411.221 332.699C407.649 322.672 407.564 305.785 384.29 316.558C375.442 320.646 385.447 346.52 385.796 351.954C386.146 357.388 382.638 363.109 382.638 363.109L387.302 367.503L398.135 367.294Z" fill="#E9D6B8"/>
<path d="M404.724 334.79C404.724 334.79 402.442 332.991 401.839 334.845C401.236 336.698 402.095 341.013 403.196 341.51C404.297 342.008 404.082 347.176 404.082 347.176L400.457 352.511L385.076 350.765C385.076 350.765 380.582 348.152 380.592 344.701C380.601 341.25 379.544 316.784 379.544 316.784L390.98 312.326C394.271 311.12 397.647 310.158 401.079 309.447C407.387 308.402 408.29 311.795 407.908 313.483C407.525 315.17 409.391 315.574 411.855 315.853C414.32 316.133 417.136 318.365 415.68 319.307C415.091 319.713 417.352 321.51 416.186 323.189C414.501 325.614 409.756 325.921 408.905 330.051C408.517 331.96 407.033 338.121 404.724 334.79Z" fill="#194866"/>
<path d="M358.98 375.885L377.38 367.535L382.46 362.735L402.02 362.255L405.45 367.895L420.61 374.475C420.61 374.475 424.35 380.355 421.09 402.195C417.49 426.385 416.73 462.965 416.73 462.965L359.39 465.725C359.39 465.725 364.36 387.635 358.98 375.885Z" fill="#0095EF"/>
<path d="M274.7 393.575C277.14 399.675 283.3 435.895 276.43 444.435C275.64 445.435 279.99 446.965 279.21 451.435C279.07 452.195 277.76 455.785 277.76 455.785L272.14 457.245L255.14 447.585L258.39 443.635H259.93C260.725 442.853 261.097 441.737 260.93 440.635C260.53 438.975 264.82 436.275 271.31 408.155C273.3 399.925 274.16 392.235 274.7 393.575Z" fill="#B0BFDE"/>
<path d="M223.99 377.115C217.44 378.755 205.36 384.635 202.83 394.675C199.04 409.755 206.63 431.895 194.61 453.555C190.77 460.465 261.03 469.735 261.03 469.735L274.58 393.535C274.58 393.535 257.65 376.995 254.19 375.875C247.01 373.575 237.09 373.815 223.99 377.115Z" fill="#BCD0E2"/>
<path d="M231.818 379.441L237.886 362.154C238.362 360.799 239.846 360.086 241.201 360.562L251.015 364.007C252.37 364.483 253.083 365.967 252.607 367.322L246.538 384.609C246.062 385.964 244.578 386.677 243.223 386.201L233.41 382.755C232.055 382.279 231.342 380.796 231.818 379.441Z" fill="#E2C59C"/>
<path d="M318.7 471.435C316.61 477.225 279.94 498.505 267.7 497.245L230.7 499.015C199.21 495.165 184.31 446.245 184.31 446.245C185.56 433.955 216.59 451.765 227.64 457.245C245.15 465.985 256.22 466.425 256.22 466.425C267.94 467.625 281.52 458.585 296.3 458.265C312.48 457.965 321.99 462.325 318.7 471.435Z" fill="#081832"/>
<path d="M247.846 453.286L254.534 447.405C254.534 447.405 258.153 449.277 258.117 450.185C258.082 451.092 260.592 455.253 260.592 455.253L258.407 460.259L254.865 460.731C254.865 460.731 254.013 459.511 254.994 458.877C255.975 458.242 253.846 458.325 253.148 458.287C252.451 458.249 246.839 458.129 247.846 453.286Z" fill="#E9D6B8"/>
<path d="M228.261 435.895C228.261 435.895 235.416 450.339 249.905 453.116C252.406 453.605 254.175 456.114 253.032 457.065C251.61 458.28 249.558 458.696 246.01 458.989C238.617 459.62 228.356 458.158 220.816 452.017C209.653 442.934 206.027 438.667 206.645 433.565C207.263 428.464 228.261 435.895 228.261 435.895Z" fill="#E9D6B8"/>
<path d="M204.87 389.635C201.87 394.575 200.12 402.505 200.15 413.865C200.15 422.645 207.75 437.035 208.91 441.465C209.11 442.205 209.57 445.375 209.57 445.375L217.97 453.615L234.81 442.185L229.68 434.315L228.15 434.475C228.15 434.475 227.15 430.145 227.44 428.475C227.73 426.805 222.78 404.125 220.34 389.595C218.93 381.185 207.87 384.745 204.87 389.635Z" fill="#B0BFDE"/>
<path d="M219.93 434.185L224.87 432.685L226.87 432.185C227.013 433.085 227.478 433.903 228.18 434.485L224.32 434.935L219.87 436.295L214.65 439.885L219.93 434.185Z" fill="#BCD0E2"/>
<path d="M255.241 387.823C254.745 389.628 252.879 390.69 251.074 390.194C251.073 390.194 251.072 390.193 251.071 390.193L236.371 386.143C234.572 385.638 233.518 383.775 234.011 381.973L240.011 360.203C240.507 358.403 242.367 357.346 244.167 357.842C244.168 357.842 244.17 357.843 244.171 357.843L258.871 361.893C260.669 362.394 261.727 364.251 261.241 366.053L255.241 387.823Z" fill="#E9D6B8"/>
<path d="M260.021 370.553C261.259 369.82 262.367 368.887 263.301 367.793C263.762 366.17 263.388 364.424 262.301 363.133C260.931 361.733 259.081 363.133 259.081 363.133C259.081 363.133 261.291 365.303 261.281 365.883C261.271 366.463 260.021 370.553 260.021 370.553Z" fill="#163F59"/>
<path d="M235.811 369.583C235.811 369.583 235.901 360.583 236.981 358.273C238.061 355.963 238.801 354.273 241.881 354.863C246.461 355.693 246.261 356.663 248.811 355.863C251.361 355.063 256.181 352.863 257.611 352.953C260.011 353.023 263.321 354.743 262.291 358.953C261.811 360.523 262.153 362.229 263.201 363.493C262.921 363.823 262.011 363.963 260.381 364.273C255.741 365.193 253.181 364.933 250.281 363.273C247.381 361.613 242.031 358.213 240.711 360.343C239.391 362.473 237.711 369.623 237.301 370.083C236.891 370.543 236.251 370.153 235.811 369.583Z" fill="#194866"/>
<path d="M238.641 377.393C238.476 377.995 237.854 378.348 237.252 378.183H237.251L234.081 377.303C233.487 377.15 233.13 376.545 233.283 375.951C233.285 375.942 233.288 375.932 233.291 375.923L234.891 370.113C235.056 369.511 235.678 369.158 236.28 369.323H236.281L239.451 370.203C240.053 370.368 240.406 370.99 240.241 371.592V371.593L238.641 377.393Z" fill="#E9D6B8"/>
<path d="M257.581 382.613C257.411 383.212 256.792 383.563 256.191 383.403L253.011 382.523C252.413 382.363 252.059 381.749 252.219 381.151C252.22 381.148 252.22 381.146 252.221 381.143L253.831 375.333C253.991 374.735 254.605 374.381 255.203 374.541C255.206 374.542 255.208 374.542 255.211 374.543L258.391 375.423C258.988 375.589 259.341 376.204 259.181 376.803L257.581 382.613Z" fill="#E9D6B8"/>
<path d="M236.701 371.883C236.701 371.883 234.331 380.453 233.551 383.313C232.841 385.903 232.301 391.853 246.901 395.863C255.531 398.253 256.961 391.813 257.541 389.733C257.981 388.143 257.491 382.893 256.831 381.733L255.831 385.273C255.182 382.814 253.28 380.881 250.831 380.193C244.211 378.373 241.641 381.833 238.731 380.963C236.571 380.283 235.891 376.153 236.701 371.883Z" fill="#194866"/>
<path d="M246.631 385.063L251.171 386.313C251.767 386.478 252.384 386.127 252.549 385.531C252.55 385.528 252.55 385.526 252.551 385.523L252.731 384.893L246.021 383.033L245.841 383.673C245.675 384.275 246.028 384.897 246.63 385.063H246.631Z" fill="#E9D6B8"/>
<path d="M238.14 465.565V465.515V463.975L301.87 462.815V464.355L301.72 464.645C300.92 466.005 299.46 466.265 297.72 466.305L242.26 467.305C240.58 467.305 239.1 467.125 238.26 465.805L238.14 465.565Z" fill="#B6C2C9"/>
<path d="M253.5 465.535L253.35 465.765C253.114 466.106 252.798 466.384 252.43 466.575L242.74 466.745C241.12 466.745 239.74 466.615 238.9 465.545L238.74 465.315V464.555L253.51 464.285L253.5 465.535Z" fill="#D8E5ED"/>
<path d="M262.054 463.909L293.899 463.331L293.919 464.411L262.074 464.989L262.054 463.909Z" fill="#879BA6"/>
<path d="M253.87 463.635L261.57 432.155C261.803 431.304 262.549 430.693 263.43 430.635L308.14 429.815C308.757 429.776 309.289 430.246 309.328 430.863C309.337 431.01 309.317 431.156 309.27 431.295L301.58 462.765L253.87 463.635Z" fill="#D9E1E4"/>
<path d="M278.81 446.765C278.426 447.895 279.03 449.121 280.16 449.505C280.43 449.597 280.716 449.634 281 449.615C282.721 449.496 284.173 448.287 284.6 446.615C284.996 445.501 284.414 444.278 283.3 443.882C283.018 443.782 282.718 443.742 282.42 443.765C280.695 443.88 279.238 445.09 278.81 446.765Z" fill="#B6C2C9"/>
<path d="M224.97 507.185C229.38 507.935 232.74 502.815 232.74 502.815L244.14 493.815L241.73 487.745L219.54 497.745C219.54 497.745 220.55 506.415 224.97 507.185Z" fill="#E9D6B8"/>
<path d="M225.75 492.515C225.75 492.515 304.06 460.315 308.54 460.275C323.67 460.135 320.2 475.435 312.54 482.645C303.54 491.145 234.74 506.645 234.74 506.645L225.75 492.515Z" fill="#163F59"/>
<path d="M232.274 504.486C231.868 505.4 231.345 506.259 230.718 507.039C229.293 509.069 228.076 509.591 226.921 509.612C222.482 509.713 219.69 508.311 209.297 507.568C198.904 506.825 196.328 504.58 194.656 499.243C192.984 493.906 196.954 491.152 201.872 492.08C208.987 493.423 212.654 495.268 216.436 495.684C220.397 496.127 220.867 495.342 223.466 494.57C225.897 493.846 225.763 502.011 223.306 503.256C221.165 504.327 230.018 506.986 232.274 504.486Z" fill="#194866"/>
<path d="M228.979 508.311C224.54 508.413 221.748 507.01 211.358 506.258C200.967 505.506 198.389 503.27 196.714 497.943C195.947 495.479 196.385 493.578 197.562 492.32C194.987 493.233 193.559 495.656 194.666 499.246C196.338 504.583 198.909 506.806 209.307 507.571C219.705 508.335 222.492 509.716 226.93 509.614C228.034 509.555 229.064 509.041 229.776 508.194C229.516 508.262 229.248 508.302 228.979 508.311Z" fill="white"/>
<path d="M209.944 502.347C209.594 502.377 209.473 501.713 209.604 500.837C209.874 499.051 209.947 497.241 209.823 495.439C209.756 494.531 209.973 493.802 210.337 493.796C210.701 493.79 211.11 494.542 211.162 495.426C211.265 497.208 211.173 498.995 210.889 500.758C210.774 501.534 210.307 502.269 209.944 502.347Z" fill="white"/>
<path d="M213.166 502.571C212.81 502.548 212.669 501.878 212.793 501.073C213.042 499.373 213.099 497.652 212.96 495.94C212.893 495.073 213.094 494.402 213.474 494.453C213.854 494.503 214.294 495.253 214.316 496.098C214.439 497.776 214.371 499.464 214.114 501.127C213.973 501.959 213.516 502.582 213.166 502.571Z" fill="white"/>
<path d="M216.412 503.288C216.074 503.197 215.891 502.527 215.974 501.679C216.158 499.915 216.154 498.137 215.961 496.374C215.87 495.48 216.054 494.794 216.445 494.878C216.837 494.963 217.245 495.756 217.358 496.646C217.527 498.388 217.51 500.143 217.307 501.882C217.208 502.715 216.782 503.336 216.412 503.288Z" fill="white"/>
<path d="M264.624 488.477L240.489 471.581L248.164 461.313L274.878 482.13L264.624 488.477Z" fill="#E9D6B8"/>
<path d="M266.648 472.067C266.648 472.067 205.497 430.779 201.616 429.843C188.583 426.737 183.002 441.404 184.128 446.028C185.6 452.016 247.662 493.238 247.662 493.238L266.648 472.067Z" fill="#194866"/>
<path d="M296.849 466.573C298.579 466.687 300.927 469.224 300.927 469.224C300.927 469.224 291.177 486.015 286.31 490.142C284.226 491.611 281.975 492.829 279.604 493.768C279.142 493.977 277.5 493.701 277.053 493.897C276.215 494.245 276.604 495.024 275.87 495.311C274.776 495.793 273.642 496.18 272.482 496.47C264.359 492.572 262.823 488.64 262.823 488.64C262.823 488.64 270.808 485.223 268.518 484.675C263.62 483.504 267.832 474.817 270.681 475.245C282.081 476.927 291.841 466.265 296.849 466.573Z" fill="#194866"/>
<path d="M298.705 467.254C295.772 472.49 289.556 483.453 287.85 485.047C280.878 491.61 273.551 493.189 268.829 494.453C270.004 495.193 271.222 495.864 272.475 496.462C273.636 496.173 274.77 495.785 275.864 495.303C276.597 495.016 276.208 494.237 277.047 493.889C277.494 493.694 279.136 493.969 279.598 493.76C281.969 492.821 284.22 491.604 286.304 490.135C291.177 486.015 300.92 469.216 300.92 469.216C300.261 468.478 299.518 467.819 298.705 467.254Z" fill="white"/>
<path d="M285.407 471.255C285.734 471.388 285.424 472.131 284.765 472.938C283.408 474.593 282.209 476.371 281.184 478.25C280.661 479.191 280.02 479.829 279.727 479.628C279.435 479.428 279.523 478.506 280.031 477.577C281.06 475.731 282.259 473.983 283.609 472.357C284.242 471.598 285.073 471.114 285.407 471.255Z" fill="white"/>
<path d="M281.341 472.707C281.659 472.861 281.415 473.653 280.823 474.495C279.616 476.247 278.569 478.105 277.694 480.045C277.267 481.025 276.68 481.682 276.352 481.485C276.024 481.288 276.075 480.305 276.522 479.349C277.394 477.437 278.44 475.609 279.649 473.891C280.238 473.063 281.015 472.56 281.341 472.707Z" fill="white"/>
<path d="M277.499 474.196C277.822 474.372 277.631 475.198 277.112 476.097C276.049 477.933 275.154 479.861 274.437 481.857C274.071 482.864 273.553 483.543 273.214 483.317C272.875 483.09 272.871 482.087 273.235 481.108C273.962 479.141 274.865 477.242 275.929 475.435C276.453 474.558 277.182 474.029 277.499 474.196Z" fill="white"/>
<path d="M751.861 126.345C751.84 126.283 751.823 126.219 751.811 126.155C751.85 126.11 751.887 126.064 751.921 126.015C753.574 116.797 756.538 107.863 760.721 99.485C763.721 93.705 769.721 88.235 772.401 85.485C779.251 89.215 786.031 87.485 792.401 92.325C793.282 95.148 793.951 98.032 794.401 100.955C795.401 106.545 796.201 111.755 796.931 116.615C806.861 117.555 831.391 119.435 840.621 121.245C846.091 122.505 846.411 124.635 847.261 125.315C846.771 134.245 839.531 139.315 835.151 146.425C834.371 147.705 775.351 147.115 765.591 147.115C760.421 147.055 747.151 144.065 751.861 126.345Z" fill="#194866"/>
<path d="M757.796 38.6033C743.242 42.9679 726.954 64.3819 726.954 64.3819C726.954 64.3819 727.605 71.0539 730.312 70.682C733.728 70.2151 739.688 64.5205 755.47 51.4857C765.259 43.3829 760.237 37.8654 757.796 38.6033Z" fill="#163F59"/>
<path d="M760.871 29.845C760.871 37.104 766.752 42.99 774.011 42.995L777.301 36.755C784.561 36.755 790.421 25.815 790.421 18.555V13.625C790.421 6.36798 784.538 0.484985 777.281 0.484985H773.991C766.734 0.484985 760.851 6.36798 760.851 13.625L760.871 29.845Z" fill="#E8502E"/>
<path d="M787.821 13.225C788.723 13.106 789.631 13.036 790.541 13.015C790.261 24.991 799.742 34.926 811.718 35.206C812.249 35.218 812.78 35.212 813.311 35.185C813.395 47.539 803.447 57.622 791.093 57.706C778.739 57.79 768.655 47.842 768.572 35.488C768.496 24.282 776.724 14.748 787.821 13.185V13.225Z" fill="#E8502E"/>
<path d="M766.121 5.47501C766.141 6.71399 766.248 7.95099 766.441 9.17499C767.771 17.615 772.891 24.025 778.501 24.815C778.671 28.635 780.031 31.945 780.371 34.995C781.101 41.615 788.764 42.668 788.764 42.668C789.764 48.558 766.201 56.385 766.681 55.435C767.161 54.485 772.101 47.545 773.681 41.175C774.59 37.509 773.86 33.63 771.681 30.545C769.725 28.329 766.945 27.013 763.991 26.905C763.57 26.908 763.167 26.734 762.881 26.425C762.612 25.536 762.474 24.613 762.471 23.685V12.845C762.475 9.95401 763.824 7.22998 766.121 5.47501Z" fill="#E9D6B8"/>
<path d="M792.131 76.025L801.839 56.775C805.419 51.225 803.553 45.792 797.383 44.492L764.601 37.555C760.731 37.075 754.521 42.615 755.901 49.215L763.301 70.755L792.131 76.025Z" fill="#E9D6B8"/>
<path d="M797.421 47.655C796.491 64.265 812.871 91.095 812.871 91.095C812.871 91.095 819.121 91.195 819.721 88.315C820.471 84.675 815.031 77.085 808.101 55.185C803.811 41.635 797.561 44.875 797.421 47.655Z" fill="#163F59"/>
<path d="M766.281 83.995C766.281 86.495 768.911 90.525 770.811 90.485L789.191 91.075C791.091 91.075 795.651 87.965 795.601 85.475L795.431 77.075C795.431 74.585 793.811 72.585 791.911 72.625L768.141 66.965C766.241 66.965 764.741 69.055 764.791 71.555L766.281 83.995Z" fill="#0095EF"/>
<path d="M759.841 47.035C760.138 45.888 760.572 44.78 761.131 43.735C778.071 55.735 790.051 50.655 798.691 48.615C798.782 49.138 798.842 49.665 798.871 50.195C799.191 56.195 798.761 62.195 799.011 68.115C799.251 72.865 792.561 77.015 789.351 77.115C777.351 77.635 774.671 76.915 763.161 73.805C760.071 72.975 754.341 67.945 755.541 63.575C757.001 58.088 758.434 52.575 759.841 47.035Z" fill="#0095EF"/>
<path d="M789.711 42.405C789.711 42.405 802.231 42.025 804.421 48.015C806.611 54.005 801.291 62.745 801.291 62.745C801.291 62.745 798.111 73.855 797.231 79.885C796.351 85.915 800.231 91.635 799.011 90.465C798.771 90.225 795.941 90.465 791.421 88.385C786.901 86.305 789.421 78.055 789.861 75.385C790.301 72.715 792.511 59.705 792.021 57.545C791.531 55.385 789.711 42.405 789.711 42.405Z" fill="#194866"/>
<path d="M753.421 46.205C753.421 46.205 752.421 41.205 754.521 39.205C757.521 36.285 764.881 36.675 767.251 37.375C768.618 37.763 769.955 38.25 771.251 38.835C771.251 38.835 762.961 42.175 763.251 59.335C763.497 63.863 764.102 68.363 765.061 72.795C766.061 77.355 766.401 86.265 766.401 86.265C766.401 86.265 761.401 87.265 761.231 88.015C761.061 88.765 760.691 82.715 757.321 77.015C753.951 71.315 753.421 46.205 753.421 46.205Z" fill="#194866"/>
<path d="M764.301 36.935C759.691 40.775 756.901 44.055 757.601 63.995C757.711 67.225 757.601 73.165 758.191 78.695C757.911 78.125 757.611 77.555 757.281 76.975C753.911 71.235 753.381 46.205 753.381 46.205C753.381 46.205 752.791 41.695 754.861 39.695C756.931 37.695 761.121 36.715 764.301 36.935Z" fill="#163F59"/>
<path d="M813.968 43.4732L812.064 43.7923L811.84 42.4509L799.137 44.58L801.023 55.8331C801.171 57.2744 802.45 58.3295 803.894 58.2011L811.784 56.8787C813.195 56.5336 814.066 55.1172 813.736 53.7023L813.592 52.8443L815.495 52.5253C816.499 52.281 817.114 51.2704 816.871 50.2668L816.011 45.1383C815.904 44.116 814.991 43.3726 813.968 43.4732ZM815.424 50.5295C815.462 50.6855 815.366 50.8424 815.21 50.8797L815.209 50.8799L813.306 51.1989L812.34 45.4393L814.244 45.1202C814.404 45.1046 814.546 45.2207 814.561 45.3804L814.561 45.3813L815.424 50.5295Z" fill="#B0BFDE"/>
<path d="M817.661 69.9266C818.075 65.4364 819.244 60.6777 818.469 58.1713C817.355 54.6065 815.213 53.262 815.439 50.6791C815.449 50.3967 815.442 50.1129 815.419 49.8308C815.384 49.0763 815.483 48.218 815.432 47.9123C815.381 47.6065 815.087 46.581 815.355 46.9112C817.763 49.9651 820.16 53.6192 820.306 54.5479C820.625 56.4514 821.779 67.0869 821.391 71.1265C820.97 75.689 817.105 75.9819 817.661 69.9266Z" fill="#E9D6B8"/>
<path d="M819.046 57.3142C819.046 57.3142 819.945 57.5386 820.153 56.8447C820.388 55.3991 820.37 53.9236 820.102 52.4832C819.936 51.497 818.52 47.2223 818.52 47.2223C818.154 48.2935 818.139 49.454 818.477 50.5349C819 52.754 819.192 55.0388 819.046 57.3142Z" fill="#E9D6B8"/>
<path d="M821.945 78.1821C820.379 77.8534 818.833 77.4362 817.314 76.9303C818.497 65.173 820.029 55.2534 820.029 55.2534L821.945 78.1821Z" fill="#E9D6B8"/>
<path d="M818.943 51.6837L816.799 45.6045L814.254 45.4227L813.487 45.9873L813.491 46.6762C813.491 46.6762 813.876 47.0375 813.817 47.0474C813.462 47.1069 813.75 48.1637 814.056 48.1125C814.03 48.6106 814.043 49.1104 814.093 49.6068C814.377 50.0866 815.338 49.8342 815.946 50.8579C816.553 51.8815 816.175 53.253 816.78 53.2327C817.385 53.2124 818.943 51.6837 818.943 51.6837Z" fill="#E9D6B8"/>
<path d="M822.029 75.2376C821.718 74.3468 816.407 74.9024 816.083 76.6601L815.675 77.9757C815.675 77.9757 812.652 89.4634 818.711 90.4656C818.701 90.4673 824.83 88.9837 822.029 75.2376Z" fill="#163F59"/>
<path d="M726.572 68.8395C722.4 60.0518 731.579 49.5796 731.579 49.5796C731.579 49.5796 734.57 49.9353 735.678 51.5616C737.094 53.6078 736.548 57.8526 734.689 67.4881C733.546 73.4947 727.266 70.2924 726.572 68.8395Z" fill="#163F59"/>
<path d="M730.459 61.4699C730.459 61.4699 732.454 61.6737 734.489 53.4045C736.524 45.1353 735.184 35.4176 735.184 35.4176L730.387 51.5225C730.387 51.5225 728.184 58.7759 730.459 61.4699Z" fill="#E9D6B8"/>
<path d="M735.184 35.3975C734.941 34.4193 734.597 33.4688 734.154 32.5632C733.365 30.4869 732.426 28.4709 731.346 26.5304C730.64 25.2162 730.015 23.8595 729.474 22.4686C729.003 24.6946 730.197 25.8434 730.385 26.8599C730.572 27.8764 730.624 27.5079 729.179 26.3911C728.369 25.7549 728.115 23.3556 727.746 21.773C727.632 21.095 727.358 20.4549 726.945 19.9064C726.879 21.3271 726.955 22.7502 727.169 24.1558C727.516 26.1469 728.088 28.0922 728.875 29.9532C729.854 31.5873 730.945 33.153 732.137 34.6398C733.376 36.5534 733.789 38.8868 733.281 41.1097C732.893 42.9182 735.322 38.9137 735.184 35.3975Z" fill="#E9D6B8"/>
<path d="M729.181 30.0931C728.232 28.8021 727.39 27.4365 726.66 26.0105C726.527 25.456 726.305 22.7075 726.305 22.7075C726.843 23.352 727.22 24.1154 727.405 24.9337C727.888 26.6891 728.481 28.4119 729.181 30.0931Z" fill="#E9D6B8"/>
<path d="M792.101 91.955C792.101 92.225 790.761 92.375 789.151 92.275L770.921 91.135C769.311 91.035 768.021 90.735 768.041 90.455L768.101 89.455C768.101 89.185 769.441 89.045 771.101 89.135L789.321 90.275C790.931 90.375 792.231 90.675 792.211 90.955L792.101 91.955Z" fill="#15100C"/>
<path d="M793.841 120.805H845.381V121.865H793.841V120.805Z" fill="#CDD5D7"/>
<path d="M816.591 120.745C816.545 121.513 817.124 122.176 817.891 122.235H844.331C845.041 122.235 846.021 121.715 846.901 119.625L859.971 95.775C860.048 95.022 859.501 94.349 858.748 94.272C858.646 94.261 858.543 94.262 858.441 94.275L831.331 95.095C830.48 95.348 829.825 96.033 829.611 96.895L816.591 120.745Z" fill="#CDD5D7"/>
<path d="M819.791 121.865H793.721C795.046 122.458 796.49 122.739 797.941 122.685H841.421C842.869 122.738 844.309 122.457 845.631 121.865H819.791Z" fill="#B7BEC0"/>
<path d="M846.012 136.653C846.845 134.33 846.85 131.832 847.22 129.473C846.664 125.402 845.688 122.916 844.274 122.442C838.949 120.651 827.809 132.929 813.058 198.361C809.841 212.61 802.282 243.008 804.613 237.529C805.885 234.538 808.632 236.752 809.819 233.956C841.026 160.463 841.981 147.9 846.012 136.653Z" fill="#E2C59C"/>
<path d="M803.588 234.913L805.965 222.689C806.129 221.603 806.872 220.693 807.904 220.316L806.078 229.736C805.692 231.494 806.62 233.276 808.281 233.968C808.782 234.131 809.321 234.127 809.819 233.956L809.271 236.769C809.133 238.282 807.796 239.397 806.284 239.26C806.121 239.246 805.959 239.215 805.801 239.172C804.117 238.488 803.179 236.684 803.588 234.913Z" fill="#163F59"/>
<path d="M835.428 139.352C835.714 136.994 835.007 134.604 834.756 132.284C833.193 128.597 831.538 126.774 830.114 126.35C823.639 124.427 817.375 136.776 817.226 177.488C817.118 198.016 817.988 215.32 811.348 229.47C810.488 231.162 810.155 233.074 810.393 234.957C811.049 240.401 814.553 245.906 814.673 245.626C818.958 234.93 830.277 183.414 835.428 139.352Z" fill="#E9D6B8"/>
<path d="M809.886 243.68L810.243 231.233C810.229 230.132 810.819 229.11 811.782 228.573L811.494 238.167C811.397 239.963 812.605 241.568 814.357 241.972C814.878 242.049 815.41 241.96 815.877 241.717L815.789 244.578C815.884 246.094 814.732 247.4 813.217 247.495C813.06 247.504 812.905 247.502 812.749 247.485C810.996 247.081 809.789 245.476 809.886 243.68Z" fill="#194866"/>
<path d="M941.276 466.669L954.61 440.487L971.682 440.758L980.231 442.845L961.515 446.537L950.618 470.911L941.276 466.669Z" fill="#E9D6B8"/>
<path d="M956.655 436.326L958.897 436.95L960.032 439.769L973.814 439.696L984.814 442.177C984.682 442.621 984.409 443.01 984.036 443.285C982.079 444.249 973.408 444.431 973.408 444.431C973.408 444.431 974.398 442.081 973.451 441.545C972.505 441.01 961.844 441.235 959.283 441.497C954.87 441.957 952.555 442.968 952.768 442.387C953.129 441.549 956.655 436.326 956.655 436.326Z" fill="#0095EF"/>
<path d="M911.233 520.894L943.726 456.481L955.997 461.906L924.524 537.707C924.524 537.707 920.534 546.864 909.051 544.114C898.908 540.926 911.233 520.894 911.233 520.894Z" fill="#D1320B"/>
<path d="M742.73 502.315C750.442 510.222 763.105 510.38 771.012 502.668C778.92 494.956 779.078 482.293 771.366 474.386C763.654 466.479 750.991 466.321 743.083 474.033C742.988 474.126 742.894 474.22 742.8 474.315C735.06 482.032 735.029 494.559 742.73 502.315Z" fill="#181863"/>
<path d="M771.16 502.825C778.869 510.735 791.532 510.898 799.442 503.189C807.352 495.48 807.514 482.817 799.805 474.907C792.096 466.997 779.434 466.834 771.524 474.543C771.429 474.636 771.334 474.73 771.24 474.825C763.497 482.54 763.462 495.066 771.16 502.825Z" fill="#181863"/>
<path d="M747.95 469.335C757.7 478.915 773.55 478.625 783.34 468.665C793.13 458.705 793.19 442.865 783.43 433.265C773.67 423.665 757.84 423.965 748.04 433.925C738.237 443.648 738.172 459.477 747.895 469.28C747.913 469.298 747.932 469.317 747.95 469.335Z" fill="#181863"/>
<path d="M751.87 472.065C759.582 479.972 772.245 480.13 780.152 472.418C788.06 464.706 788.218 452.044 780.506 444.136C772.794 436.229 760.131 436.071 752.223 443.783C752.128 443.876 752.034 443.97 751.94 444.065C744.2 451.782 744.169 464.309 751.87 472.065Z" fill="#181863"/>
<path d="M730.46 472.945C736.387 478.78 745.922 478.705 751.757 472.778C751.758 472.777 751.759 472.776 751.76 472.775L749.31 465.065C755.142 459.135 755.063 449.6 749.133 443.768C749.132 443.767 749.131 443.766 749.13 443.765L745.13 439.765C739.198 433.928 729.658 434.004 723.82 439.935L721.19 442.615C715.35 448.544 715.422 458.084 721.35 463.925L730.46 472.945Z" fill="#181863"/>
<path d="M718.87 453.115C719.902 454.097 721.001 455.006 722.16 455.835C730.16 461.535 739.47 462.495 744.63 458.545C747.605 461.179 750.914 463.412 754.47 465.185C758.03 467.005 764.03 466.645 764.03 466.645C769.61 470.645 772.89 486.545 760.16 492.805C752.52 496.565 751.16 487.575 752.09 481.345C752.54 478.415 752.79 475.145 752.01 473.865C749.29 469.375 747.29 469.345 743.86 468.695C740.482 468.504 737.174 469.716 734.72 472.045C734.377 472.39 733.906 472.578 733.42 472.565C732.475 472.073 731.609 471.443 730.85 470.695L722 461.975C719.645 459.663 718.49 456.393 718.87 453.115Z" fill="#E9D6B8"/>
<path d="M768.4 477.065C775.117 486.472 788.189 488.653 797.596 481.936C807.003 475.219 809.184 462.147 802.467 452.74C795.75 443.333 782.678 441.152 773.271 447.869C773.153 447.953 773.036 448.038 772.92 448.125C763.684 454.871 761.661 467.824 768.4 477.065Z" fill="#181863"/>
<path d="M831.4 550.985L840.4 550.615L913.76 545.395C913.76 545.395 920.35 547.395 924.45 536.975C929.636 523.802 905.75 518.285 905.75 518.285C905.75 518.285 854.25 501.825 842.57 505.895C828.93 510.635 821.08 517.105 803.87 535.005C796.29 542.875 806.33 549.695 806.33 549.695L831.4 550.985Z" fill="#FF3D0D"/>
<path d="M748.12 532.468C748.12 532.468 747.615 535.805 731.416 533.79C715.217 531.775 691.946 524.835 691.946 524.835L729.751 525.919C729.751 525.919 744.173 527.093 748.12 532.468Z" fill="#E2C59C"/>
<path d="M704.542 527.607C696.819 526.886 693.136 530.452 689.968 531.371C687.786 532.047 685.648 532.857 683.566 533.799C685.586 530.666 688.094 530.787 689.442 529.846C690.789 528.904 690.455 529.394 687.687 528.935C686.134 528.67 683.121 531.175 681.012 532.515C680.147 533.145 679.137 533.545 678.077 533.682C679.599 531.984 681.286 530.441 683.111 529.074C685.676 527.208 688.458 525.662 691.396 524.469C693.091 523.978 698.285 524.277 701.922 525.111C706.027 526.049 710.11 528.117 704.542 527.607Z" fill="#E2C59C"/>
<path d="M741.43 524.765C741.43 524.765 756.37 526.625 754.79 535.455C753.9 540.455 750.37 542.015 745.86 541.385C737.49 540.185 728.02 538.385 728.02 538.385L724.6 524.305L741.43 524.765Z" fill="#007FCF"/>
<path d="M741.87 531.075L748.64 482.185C748.64 482.185 749.25 471.695 753 472.185C758.41 472.965 766.76 488.885 767 492.185C767.39 498.895 757.7 533.365 756.45 540.185C755.59 544.905 751.45 539.185 746.6 538.325C737.6 536.735 741.87 531.075 741.87 531.075Z" fill="#007FCF"/>
<path d="M748.8 476.035C748.8 476.035 761.19 460.535 771.52 469.835C781.85 479.135 817.97 508.125 828.87 511.475L831.37 552.165C801.55 554.165 777.08 538.895 775.05 535.855C768.51 525.995 744.66 488.425 748.8 476.035Z" fill="#0095EF"/>
<path d="M784.71 526.185C781.8 522.185 775.79 513.665 769.97 504.095C762.62 492.015 751.4 494.025 757.41 505.875C762.752 516.188 768.65 526.203 775.08 535.875C777.08 538.875 796.91 554.155 826.73 552.185L823.87 548.045C802.5 546.005 786.6 528.785 784.71 526.185Z" fill="#007FCF"/>
<path d="M766.487 542.165C766.487 542.165 771.087 546.86 750.755 545.29C736.305 544.154 736.668 545.156 700.915 536.801L748.14 536.468C748.14 536.468 761.188 536.206 766.487 542.165Z" fill="#E9D6B8"/>
<path d="M716.81 539.404C707.116 538.918 702.772 543.13 698.918 544.299C696.251 545.152 693.639 546.169 691.097 547.341C693.403 543.687 696.544 543.724 698.169 542.586C699.793 541.448 699.356 542.028 695.906 541.638C693.96 541.403 690.378 544.387 687.805 545.997C686.753 546.759 685.532 547.258 684.247 547.45C686.042 545.436 688.039 543.61 690.203 542C693.316 539.753 696.679 537.876 700.226 536.407C702.322 535.768 708.817 535.898 713.406 536.692C718.548 537.563 723.82 539.752 716.81 539.404Z" fill="#E9D6B8"/>
<path d="M755.87 534.295L749.16 478.975C749.16 478.975 753.48 473.525 757.28 475.425C761.35 477.425 769.47 483.045 769.47 483.045C769.47 483.045 776.26 502.245 778.11 519.045C781.11 546.975 779.67 547.595 769.47 550.045C758.81 552.585 739.47 550.045 739.47 550.045L735.21 534.185L755.87 534.295Z" fill="#0095EF"/>
<path d="M909.88 456.406L909.771 436.01L913.755 430.981L924.56 424.201L932.819 425.389L918.774 436.676L918.493 458.084L909.88 456.406Z" fill="#E9D6B8"/>
<path d="M910.25 431.534L913.869 428.747L915.045 429.603L925.047 422.726C925.047 422.726 934.29 419.944 936.171 421.999C936.771 422.662 935.315 423.855 933.272 425.476C932.457 426.146 931.588 426.747 930.673 427.273C930.673 427.273 930.187 425.697 926.481 425.225C925.296 425.07 918.163 430.182 915.662 431.546C911.231 433.957 909.555 437.187 909.327 436.894C908.754 436.12 910.25 431.534 910.25 431.534Z" fill="#0095EF"/>
<path d="M914.075 545.431C914.075 545.431 920.721 547.237 924.513 536.701C929.916 521.726 919.421 448.122 919.421 448.122L908.573 448.691L905.273 518.568C905.273 518.568 902.616 539.835 912.352 544.59L914.075 545.431Z" fill="#FF3D0D"/>
<path d="M722.76 547.565V547.505V545.365H634.3V547.505C634.294 547.525 634.294 547.545 634.3 547.565L634.53 547.965C635.66 549.815 637.7 550.155 640.03 550.155H717.03C719.37 550.155 721.41 549.815 722.55 547.965L722.76 547.565Z" fill="#D1DBEA"/>
<path d="M701.44 547.925C701.44 547.925 701.44 547.925 701.44 547.985L701.66 548.305C701.993 548.769 702.437 549.144 702.95 549.395H716.4C718.65 549.395 720.61 549.135 721.7 547.635L721.91 547.305H721.96V546.245H701.46L701.44 547.925Z" fill="#B6C2C9"/>
<path d="M645.3 545.855H689.5V547.365H645.3V545.855Z" fill="#B6C2C9"/>
<path d="M700.95 545.285L689.48 501.815C689.137 500.637 688.085 499.807 686.86 499.745H624.79C623.941 499.704 623.218 500.358 623.177 501.208C623.167 501.414 623.199 501.621 623.27 501.815L634.73 545.285H700.95Z" fill="#CDD5D7"/>
<path d="M665.87 522.515C666.425 524.076 665.609 525.792 664.048 526.347C663.67 526.481 663.27 526.538 662.87 526.515C660.501 526.39 658.467 524.788 657.79 522.515C657.235 520.954 658.051 519.238 659.612 518.683C659.99 518.549 660.39 518.492 660.79 518.515C663.16 518.637 665.195 520.24 665.87 522.515Z" fill="#B6C2C9"/>
<path d="M575.286 503.507L564.006 532.874C573.163 536.389 582.982 537.852 592.767 537.16L590.586 505.779C585.381 506.15 580.159 505.373 575.286 503.507Z" fill="#C3D80E"/>
<path d="M600.942 436.554L612.222 407.187C603.052 403.67 593.222 402.207 583.424 402.901L585.614 434.287C590.828 433.915 596.059 434.688 600.942 436.554Z" fill="#474EC9"/>
<path d="M590.611 505.796L592.767 537.16C602.574 536.47 612.112 533.649 620.717 528.894L605.465 501.374C600.894 503.91 595.825 505.419 590.611 505.796Z" fill="#9FC400"/>
<path d="M570.737 438.67C575.323 436.143 580.403 434.642 585.626 434.271L583.424 402.901C573.621 403.592 564.085 406.409 555.48 411.159L570.737 438.67Z" fill="#6E57DA"/>
<path d="M605.49 501.391L620.742 528.91C629.349 524.16 636.803 517.571 642.572 509.611L617.127 491.124C614.049 495.359 610.076 498.865 605.49 501.391Z" fill="#4DB544"/>
<path d="M570.737 438.67L555.492 411.142C546.891 415.905 539.112 422.677 533.342 430.638L559.126 448.954C562.198 444.718 566.162 441.208 570.737 438.67Z" fill="#CC5073"/>
<path d="M617.888 490.008C617.631 490.39 617.386 490.756 617.135 491.129L642.572 509.611C643.034 508.922 643.56 508.264 644.034 507.558C649.034 500.107 652.49 491.73 654.198 482.922L623.304 476.915C622.393 481.598 620.551 486.05 617.888 490.008Z" fill="#17D0B4"/>
<path d="M558.346 450.044C558.508 449.804 558.972 449.183 559.139 448.934L533.516 430.729C533.204 431.194 532.545 432.052 532.233 432.517C527.213 439.969 523.742 448.355 522.029 457.175L552.924 463.182C553.832 458.484 555.675 454.016 558.346 450.044Z" fill="url(#paint0_linear_122_1443)"/>
<path d="M568.125 499.821C565.276 497.906 562.715 495.596 560.519 492.957L536.31 513.056C543.692 521.936 553.241 528.761 564.033 532.868L575.313 503.501C572.786 502.549 570.375 501.315 568.125 499.821Z" fill="#FFCF33"/>
<path d="M608.1 440.263C610.948 442.178 613.509 444.488 615.706 447.126L639.915 427.027C632.527 418.143 622.973 411.315 612.175 407.204L600.895 436.571C603.428 437.524 605.846 438.763 608.1 440.263Z" fill="#4777E6"/>
<path d="M623.312 476.884L654.207 482.891C656.072 473.239 655.808 463.296 653.433 453.756L622.895 461.357C624.161 466.441 624.305 471.74 623.312 476.884Z" fill="#4EB3D7"/>
<path d="M552.944 463.135L522.049 457.128C520.18 466.783 520.442 476.729 522.818 486.272L553.347 478.665C552.084 473.579 551.947 468.279 552.944 463.135Z" fill="#F58620"/>
<path d="M622.903 461.363L653.441 453.762C650.998 443.947 646.375 434.809 639.915 427.027L615.706 447.126C619.143 451.272 621.602 456.137 622.903 461.363Z" fill="#4E99FF"/>
<path d="M553.325 478.699L522.818 486.272C525.26 496.087 529.883 505.225 536.344 513.006L560.553 492.908C557.108 488.773 554.637 483.917 553.325 478.699Z" fill="#FFA813"/>
<defs>
<linearGradient id="paint0_linear_122_1443" x1="410.427" y1="735.256" x2="341.32" y2="688.872" gradientUnits="userSpaceOnUse">
<stop stop-color="white"/>
<stop offset="1"/>
</linearGradient>
</defs>
</svg>
